Patient4_TMGait_0pt6_02_right_30_EMG.mot
version=1
nRows=36
nColumns=33
inDegrees=no
endheader
time	1LAddLong	2LGlutMax	3LGlutMed	4LIliopsoas	5LSemiMemb	6LBicFemLong	7LRecFem	8LVastMed	9LVastLat	10LGasMed	11LTibAnt	12lTibPost	13LPeroneusLong	14LSol	15LExtDigLong	16LFlexDigLong	17RAddLong	18RGlutMax	19RGlutMed	20RIliopsoas	21RSemiMemb	22RBicFemLong	23RRecFem	24RVastMed	25RVastLat	26RGasMed	27RTibAnt	28RTibPost	29RPeroneusLong	30RSol	31RExtDigLong	32RFlexDigLong
37.363	0.008392	0.042114	-0.067902	0.018158	-0.046844	-0.089264	0.13245	0.007172	0.1326	-0.24918	-0.005493	0.001831	-0.078735	-0.14999	-0.005798	0.16663	-0.050964	-0.029144	-0.25925	0.18951	0.22598	0.045776	0.062561	0.040894	0.060425	-0.041199	0.011139	-0.011139	0.014496	-0.006104	0.000763	-0.019073
37.364	0.008087	0.015869	-0.054169	0.005951	-0.0383	-0.069427	0.13168	0.017853	0.065918	-0.32623	0.002594	-0.10452	-0.072021	0.06546	0.014038	0.19806	-0.028992	-0.032043	0.27893	0.056915	0.28809	0.18341	0.043335	-0.007935	0.028992	-0.053711	0.012207	-0.009003	0.002289	0.00061	-0.000916	-0.014343
37.365	0.005646	0.016937	-0.075531	0.020752	0.009308	-0.080109	0.14236	0.010071	0.007477	-0.20798	-0.001831	0.11765	0.035095	0.27374	-0.009003	-0.061493	0.006409	-0.024261	0.51865	0.01236	0.16022	0.28259	0.03479	0.035248	0.027771	-0.044403	0.031128	-0.005646	-0.042114	-0.010681	-0.001678	-0.021057
37.366	0.004272	0.031891	-0.045776	0.007324	0.011597	-0.17334	0.19104	0.008392	-0.065918	-0.18158	-0.003052	0.10757	0.17105	0.43182	-0.012054	-0.063477	0.043488	-0.024261	0.1326	0.017548	0.034332	0.1767	0.090637	-0.021973	0.017395	-0.05127	0.020905	-0.009308	-0.038147	-0.026703	-0.001526	-0.014496
37.367	0.003204	0.013428	-0.077057	0.002899	0.065918	-0.16052	0.20691	0.00473	0.058594	-0.21454	-0.005188	0.048828	0.29724	0.003967	-0.022583	-0.076599	0.045013	-0.052948	-0.093842	-0.008087	-0.002899	0.070496	0.052795	-0.023041	0.01297	-0.052643	0.003815	-0.010986	-0.021515	-0.014648	-0.000153	0.003662
37.368	0.008087	0.02533	-0.059814	0.015564	0.10086	-0.10773	0.26047	0.004883	0.11795	-0.25574	0.005188	-0.18234	0.22964	-0.52094	-0.016479	-0.12024	0.049133	-0.043793	-0.28336	-0.041962	-0.028381	0.15595	0.051727	-0.064392	0.02594	-0.059662	-0.007935	-0.014801	-0.086517	-0.007477	-0.001373	-0.01236
37.369	0.006256	0.027008	-0.070801	-0.006866	0.071564	-0.038605	0.20294	0.01358	0.13565	-0.2272	0.006561	-0.027161	0.024109	-0.66009	0.008392	-0.068359	0.049438	-0.009766	-0.095215	-0.037079	-0.047607	0.13779	0.048065	-0.091553	0.024719	-0.055084	0.009766	-0.007324	-0.19134	-0.009003	-0.002594	-0.005341
37.37	0.003815	0.032501	-0.019379	-0.013428	0.063171	0.005341	0.15106	0.005646	0.08316	0.10666	0.003357	-0.023956	-0.040436	-0.095215	0.024872	-0.028381	0.026093	-0.002441	-0.1294	0.046387	0.004578	0.17609	0.046387	-0.052948	0.030518	-0.061035	0.011444	-0.011292	-0.25085	-0.018005	-0.003357	-0.018463
37.371	0.004272	0.03067	-0.045013	-0.004578	0.044861	0.020294	0.11337	0.009613	0.067902	0.2446	0.009308	0.020752	-0.048523	0.00946	0.023804	-0.28976	-0.010071	0.000458	0.14847	0.048828	0.12604	0.090942	0.021973	-0.022125	0.02533	-0.044861	-0.016174	-0.012054	-0.22293	-0.007172	-0.005188	-0.007477
37.372	-0.002441	0.027771	-0.015259	0.00351	0.014801	0.04837	0.058594	0.002594	0.048218	0.14893	0.010529	0.021515	-0.14145	0.13062	0.001068	-0.14893	-0.000763	-0.019379	0.4068	-0.03418	0.017548	0.031891	0.050659	-0.019379	0.024261	-0.052643	-0.059662	-0.010376	-0.056458	-0.011597	-0.000305	-0.011292
37.373	-0.014343	0.023804	-0.013275	0.00824	-0.036163	0.12146	0.13428	0.004425	0.013885	0.08316	0.003052	0.013275	-0.20386	0.10223	0.005798	-0.19684	-0.017242	-0.04837	0.02182	-0.12314	0.022736	0.041962	0.040283	-0.021515	0.025177	-0.049744	-0.10223	-0.007782	0.41412	-0.018311	0.000305	-0.011444
37.374	-0.064545	-0.005493	0.002289	-0.001526	-0.058746	0.10651	0.15259	0.005951	0.042267	-0.093079	-0.00061	0.011139	-0.20783	0.27084	0.027466	-0.00061	0.001373	-0.085602	-0.42587	-0.078735	0.092316	-0.021667	0.050201	-0.035553	0.021362	-0.050049	-0.066223	-0.007782	0.34149	0.022125	-0.002289	-0.000458
37.375	0.011749	0.040588	-0.000153	0.006561	0.019684	0.030365	0.10178	0.000305	0.072479	-0.14786	0.013428	0.012817	-0.080872	0.33829	0.021973	0.12512	0.025024	0.066071	-0.81512	-0.002747	0.023651	-0.064545	0.059509	-0.053101	0.018311	-0.045471	-0.005188	-0.011139	0.30853	0.023041	0.000916	-0.00885
37.376	0.000916	0.032806	-0.031128	-0.011902	0.085754	-0.004578	0.1297	-0.000458	0.066528	-0.096436	0.004578	0.008392	0.17136	0.39276	0.025787	0.32608	0.019836	0.04837	-0.23483	-0.003967	-0.053253	-0.04303	0.077057	-0.047607	0.007935	-0.046234	0.008698	-0.008545	0.30365	0.012665	-0.001984	-0.014038
37.377	0.007629	0.027618	-0.008392	0.004578	0.071716	-0.031433	0.13565	0.001678	0.05188	0.10483	0.00946	-0.004425	0.18234	0.3595	0.045013	0.52856	0.007019	0.095367	0.23743	0.016174	-0.07782	-0.063324	0.050354	-0.04715	0.016022	-0.046692	0.044556	-0.007629	0.16388	0.023041	-0.002289	-0.010071
37.378	-0.004425	0.017853	-0.038452	-0.001068	0.095978	-0.016174	0.15961	0.012512	0.021362	0.16861	0.002594	-0.000916	0.18936	0.30243	0.056763	-0.43503	0.040588	0.075684	-0.2211	0.003662	-0.089874	-0.020905	0.047455	-0.01297	-0.009613	-0.03891	0.07309	-0.010223	0.009308	0.014038	-0.004425	-0.016327
37.379	-0.003204	0.015564	-0.098267	0.021973	0.079041	0.00946	0.16327	0.006714	0.016632	0.22293	-0.000763	-0.000763	0.16296	0.28046	0.044403	0.10925	0.10376	-0.03952	-0.26825	-0.00351	-0.053864	0.00885	0.032501	-0.05127	-0.006409	-0.043335	0.052032	-0.006714	0.068817	0.020142	-0.002441	-0.016327
37.38	-0.000916	-0.008545	-0.10986	0.013123	0.053558	0.038605	0.18448	0.003204	0.017395	0.27618	0.011749	-0.031433	0.1004	-0.021362	0.019989	0.10452	0.082092	-0.02533	-0.23834	0.014648	-0.027161	0.073547	0.058746	-0.073395	-0.014801	-0.040436	0.013275	-0.011597	-0.031586	0.011902	-0.002899	-0.005646
37.381	-0.006714	0.015869	-0.083771	0.012665	0.021515	0.066681	0.17883	0.001221	0.002441	0.39688	-0.007019	-0.010376	0.015869	-0.50461	0.037231	-0.32791	0.058289	-0.036316	-0.90195	-0.000763	0.063477	0.12405	0.039215	-0.095978	0.006409	-0.042877	-0.023041	-0.006561	-0.2388	-0.009155	-0.001373	-0.005951
37.382	-0.002289	0.032501	-0.046844	0.009918	0.009003	0.12482	0.20065	0.010223	-0.009308	0.31494	-0.003357	0.000153	-0.047455	-0.80414	0.028687	-0.30106	0.039063	-0.062103	-0.39276	-0.000916	0.087433	0.058136	-0.02182	-0.069122	0.022736	-0.039825	0.002594	-0.007172	-0.17425	0.017395	-0.00412	-0.012817
37.383	0.005493	0.033112	-0.076141	0.014954	-0.020142	0.095215	0.20584	0.00946	-0.010834	0.050354	0.006561	0.007782	-0.083618	-0.6958	0.007629	0.54382	0.036011	-0.038757	0.12528	-0.059052	-0.055237	-0.031433	0.010223	-0.048065	-0.001984	-0.035858	0.023956	-0.007629	-0.076599	0.02243	-0.000305	-0.009003
37.384	0	0.056915	-0.020447	-0.022278	0.01297	-0.033722	0.21301	0.010529	-0.024414	-0.11505	0.010986	-0.004883	-0.065002	0.071411	-0.013885	-0.25436	0.026093	-0.031128	0.85205	-0.044403	-0.18768	-0.035095	0.010834	-0.080719	0.000458	-0.037537	0.035248	-0.012665	0.023346	0.030518	-0.006561	-0.003204
37.385	0.000916	0.085297	0.058441	-0.02533	0.044098	-0.14526	0.22553	0.010376	-0.008087	-0.30075	0.009613	0.010376	-0.024719	0.61874	-0.029144	0.36346	-0.02182	-0.063019	0.64179	0.022125	-0.39749	0.026398	0.021667	-0.076141	0.016479	-0.036926	-0.010071	-0.007324	-0.007324	0.012817	-0.000763	0.002136
37.386	0.010223	0.083466	0.056915	-0.007935	0.041962	-0.18173	0.24094	0.00473	-0.009766	-0.57831	0.010681	0	-0.038147	0.93307	-0.030518	0.015564	-0.065765	-0.009003	0.15686	0.093689	-0.50995	0.071106	0.010071	-0.072784	0.010071	-0.029602	-0.056458	-0.005035	-0.023346	0.003815	0.000458	0.005035
37.387	-0.003357	0.057983	0.028839	0.017242	0.007172	-0.12589	0.24048	0.011292	-0.036926	-0.52338	0.020294	-0.019379	-0.014038	0.80749	-0.020447	0.10544	-0.058746	-0.037689	0.25909	0.12146	-0.10468	0.043182	-0.078735	0.001984	0.03006	-0.023956	-0.11917	-0.007172	-0.002289	0.025177	-0.00061	-0.001678
37.388	-0.000916	0.080719	-0.001526	0.01297	-0.025482	-0.035553	0.30411	0.003815	-0.046082	-0.37079	0.012054	-0.026093	0.023193	0.55862	-0.036011	-0.1564	-0.036011	-0.040283	0.39002	0.037537	0.32684	-0.010529	-0.065765	0.057373	0.034485	-0.024261	-0.12863	-0.001678	0.014954	0.007477	-0.002136	-0.003815
37.389	-0.007019	0.061951	-0.016785	0.004425	-0.014496	-0.003662	0.29938	0.01358	-0.043488	0.33417	-0.003967	-0.008545	0.13855	0.38971	-0.005646	0.42038	0.009003	-0.082397	0.18845	-0.13168	0.26672	-0.14954	-0.045776	-0.024567	0.01297	-0.023499	0.11856	-0.005646	0.006409	-0.018768	0.001221	-0.005188
37.39	-0.004883	0.11154	-0.020905	0.005951	0.021057	0.07843	0.25543	0.004883	-0.00473	0.14679	-0.055847	0.012665	0.097809	0.2179	0.018158	-0.34546	0.080109	-0.07843	-0.30975	-0.10315	0.27054	-0.23987	-0.003204	-0.10803	0.006561	-0.02533	0.27268	-0.005035	-0.030975	-0.007019	0.000763	-0.000305
37.391	-0.004272	0.10849	-0.003052	0.005341	-0.032043	0.037842	0.23819	0.009766	-0.030212	-0.41565	0.009613	0.016479	-0.062561	0.11597	-0.023651	-0.63675	0.1503	-0.12573	-0.32669	0.13001	0.41351	-0.38483	0.05127	-0.25482	-0.014954	-0.026245	0.30991	-0.005951	-0.31387	-0.003967	-0.002136	-0.00824
37.392	0.007935	0.13107	0.029297	-0.005951	0.047302	-0.020752	0.18112	0.017853	-0.023499	-0.51071	0.001221	0.019684	-0.13077	-0.042419	-0.0354	-0.22568	0.18051	-0.086517	-0.17685	0.11368	0.28625	-0.54764	0.068817	-0.25559	-0.023193	-0.024109	0.28183	-0.005341	-0.031281	0.03418	-0.001984	-0.012054
37.393	0.023651	0.13153	0.0383	0.004578	0.090332	-0.04425	0.10086	0.019836	-0.032196	-0.19318	0.031586	0.04364	-0.1181	-0.32303	-0.012817	0.69366	0.07019	-0.092926	-0.05722	0.018768	0.11063	-0.29327	0.019073	-0.11749	0.022888	-0.02533	0.24796	-0.011444	0.00946	0.046997	-0.002289	-0.012512
37.394	0.018921	0.12009	0.006104	0.015717	0.099792	-0.046692	0.065918	-0.001831	0.009308	-0.27191	0.018463	0.044098	-0.039673	-0.40329	0.016937	0.58548	-0.11108	-0.15289	-0.022125	0.028534	-0.40741	0.14374	-0.13657	0.12421	0.045624	-0.021362	0.011597	-0.006104	-0.074005	0.067291	-0.000916	-0.018463
37.395	0.010529	0.10376	-0.016785	0.014496	0.068665	-0.030365	0.20477	-0.008545	0.046387	-0.5957	-0.015717	0.03006	0.00824	-0.27908	0.025787	0.13519	-0.12817	-0.093689	-0.09201	0.003967	-0.50934	0.25223	-0.076141	0.20035	0.042114	-0.023956	-0.4129	-0.011597	-0.042572	0.052185	-0.002136	-0.014191
37.396	-0.005035	0.12848	-0.004425	-0.009155	0.043488	0.068054	0.28946	-0.005341	0.028687	-0.22064	-0.035858	0.000305	0.021973	-0.17471	0.040436	0.19638	-0.048981	-0.032806	-0.15411	0.022125	-0.23193	0.20966	-0.005035	0.080109	-0.003357	-0.021667	-0.3656	-0.004883	0.31616	0.012207	-0.002136	-0.007935
37.397	-0.00946	0.11444	-0.018311	0.003357	0.033112	0.093536	0.2478	-0.004578	-0.054016	0.62805	0.007629	0.003967	0.036621	-0.32867	0.042114	0.056458	-0.027771	-0.045624	0.012665	0.023651	-0.16571	0.091248	-0.020752	-0.029297	0.009766	-0.019073	-0.19989	-0.00351	0.34973	0.008392	-0.000763	-0.009155
37.398	-0.00412	0.1297	-0.014648	0.010376	0.02655	0.10498	0.22247	-0.000305	-0.093384	0.82016	-0.002136	0.054932	0.047455	-0.58731	0.031281	0.032654	-0.066376	-0.041199	0.12573	-0.032959	-0.07431	0.012665	-0.03067	0.024567	0.000153	-0.018768	-0.14114	-0.008698	0.168	-0.002136	-0.002441	-0.006561
